<svg width="478" height="481" viewBox="0 0 478 481" fill="none" xmlns="http://www.w3.org/2000/svg">
<g filter="url(#filter0_b_567_866)">
<path d="M160.224 12.2291C206.526 -2.94627 256.416 -3.78199 303.312 9.8322C350.208 23.4464 391.907 50.8709 422.909 88.488C453.911 126.105 472.759 172.147 476.966 220.542C481.174 268.936 470.543 317.408 446.477 359.564C422.41 401.72 386.039 435.579 342.161 456.675C298.282 477.771 248.958 485.113 200.695 477.732C152.432 470.351 107.497 448.594 71.8183 415.331C36.1394 382.068 11.3926 338.862 0.84247 291.412L88.0956 272.51C94.7395 302.392 110.324 329.601 132.792 350.548C155.261 371.495 183.558 385.197 213.952 389.845C244.346 394.493 275.407 389.869 303.039 376.584C330.672 363.299 353.576 341.976 368.732 315.429C383.888 288.881 390.582 258.356 387.933 227.88C385.283 197.404 373.414 168.409 353.89 144.72C334.367 121.031 308.107 103.76 278.575 95.1866C249.042 86.6131 217.624 87.1394 188.465 96.6961L160.224 12.2291Z" fill="black" fill-opacity="0.3"/>
<path d="M160.224 12.2291C206.526 -2.94627 256.416 -3.78199 303.312 9.8322C350.208 23.4464 391.907 50.8709 422.909 88.488C453.911 126.105 472.759 172.147 476.966 220.542C481.174 268.936 470.543 317.408 446.477 359.564C422.41 401.72 386.039 435.579 342.161 456.675C298.282 477.771 248.958 485.113 200.695 477.732C152.432 470.351 107.497 448.594 71.8183 415.331C36.1394 382.068 11.3926 338.862 0.84247 291.412L88.0956 272.51C94.7395 302.392 110.324 329.601 132.792 350.548C155.261 371.495 183.558 385.197 213.952 389.845C244.346 394.493 275.407 389.869 303.039 376.584C330.672 363.299 353.576 341.976 368.732 315.429C383.888 288.881 390.582 258.356 387.933 227.88C385.283 197.404 373.414 168.409 353.89 144.72C334.367 121.031 308.107 103.76 278.575 95.1866C249.042 86.6131 217.624 87.1394 188.465 96.6961L160.224 12.2291Z" fill="url(#paint0_linear_567_866)"/>
</g>
<defs>
<filter id="filter0_b_567_866" x="-3.15723" y="-3.79932" width="485.022" height="488.322" filterUnits="userSpaceOnUse" color-interpolation-filters="sRGB">
<feFlood flood-opacity="0" result="BackgroundImageFix"/>
<feGaussianBlur in="BackgroundImageFix" stdDeviation="2"/>
<feComposite in2="SourceAlpha" operator="in" result="effect1_backgroundBlur_567_866"/>
<feBlend mode="normal" in="SourceGraphic" in2="effect1_backgroundBlur_567_866" result="shape"/>
</filter>
<linearGradient id="paint0_linear_567_866" x1="7.12394" y1="164.769" x2="465.876" y2="315.954" gradientUnits="userSpaceOnUse">
<stop stop-opacity="0.2"/>
<stop offset="1" stop-opacity="0"/>
</linearGradient>
</defs>
</svg>
